<?xml version="1.0" encoding="UTF-8"?>
<svg width="512" height="512" viewBox="0 0 512 512" fill="none" xmlns="http://www.w3.org/2000/svg">
  <rect width="512" height="512" rx="128" fill="#3F51B5"/>
  <path d="M256 128C184.35 128 128 184.35 128 256C128 327.65 184.35 384 256 384C327.65 384 384 327.65 384 256C384 184.35 327.65 128 256 128ZM256 352C202.1 352 160 309.9 160 256C160 202.1 202.1 160 256 160C309.9 160 352 202.1 352 256C352 309.9 309.9 352 256 352Z" fill="white"/>
  <path d="M288 256C288 273.7 273.7 288 256 288C238.3 288 224 273.7 224 256C224 238.3 238.3 224 256 224C273.7 224 288 238.3 288 256Z" fill="white"/>
  <path d="M256 192C222.9 192 192 206.3 192 224V256C192 273.7 206.3 288 224 288H288C305.7 288 320 273.7 320 256V224C320 206.3 289.1 192 256 192Z" fill="white" fill-opacity="0.7"/>
</svg>
